<?xml version="1.0" encoding="utf-8" standalone="no"?>
<!DOCTYPE svg PUBLIC "-//W3C//DTD SVG 1.1//EN"
  "http://www.w3.org/Graphics/SVG/1.1/DTD/svg11.dtd">
<svg xmlns:xlink="http://www.w3.org/1999/xlink" width="432pt" height="288pt" viewBox="0 0 432 288" xmlns="http://www.w3.org/2000/svg" version="1.1">
 <metadata>
  <rdf:RDF xmlns:dc="http://purl.org/dc/elements/1.1/" xmlns:cc="http://creativecommons.org/ns#" xmlns:rdf="http://www.w3.org/1999/02/22-rdf-syntax-ns#">
   <cc:Work>
    <dc:type rdf:resource="http://purl.org/dc/dcmitype/StillImage"/>
    <dc:date>2022-09-13T16:51:01.437419</dc:date>
    <dc:format>image/svg+xml</dc:format>
    <dc:creator>
     <cc:Agent>
      <dc:title>Matplotlib v3.5.3, https://matplotlib.org/</dc:title>
     </cc:Agent>
    </dc:creator>
   </cc:Work>
  </rdf:RDF>
 </metadata>
 <defs>
  <style type="text/css">*{stroke-linejoin: round; stroke-linecap: butt}</style>
 </defs>
 <g id="figure_1">
  <g id="patch_1">
   <path d="M 0 288 
L 432 288 
L 432 0 
L 0 0 
L 0 288 
z
" style="fill: none"/>
  </g>
  <g id="axes_1">
   <g id="patch_2">
    <path d="M 54 252 
L 388.8 252 
L 388.8 34.56 
L 54 34.56 
z
" style="fill: #ffffff"/>
   </g>
   <g id="patch_3">
    <path d="M 69.218182 252 
L 75.305455 252 
L 75.305455 251.979291 
L 69.218182 251.979291 
z
" clip-path="url(#peb797ebf28)" style="fill: #1f77b4"/>
   </g>
   <g id="patch_4">
    <path d="M 75.305455 252 
L 81.392727 252 
L 81.392727 251.979291 
L 75.305455 251.979291 
z
" clip-path="url(#peb797ebf28)" style="fill: #1f77b4"/>
   </g>
   <g id="patch_5">
    <path d="M 81.392727 252 
L 87.48 252 
L 87.48 251.979291 
L 81.392727 251.979291 
z
" clip-path="url(#peb797ebf28)" style="fill: #1f77b4"/>
   </g>
   <g id="patch_6">
    <path d="M 87.48 252 
L 93.567273 252 
L 93.567273 251.958583 
L 87.48 251.958583 
z
" clip-path="url(#peb797ebf28)" style="fill: #1f77b4"/>
   </g>
   <g id="patch_7">
    <path d="M 93.567273 252 
L 99.654545 252 
L 99.654545 251.958583 
L 93.567273 251.958583 
z
" clip-path="url(#peb797ebf28)" style="fill: #1f77b4"/>
   </g>
   <g id="patch_8">
    <path d="M 99.654545 252 
L 105.741818 252 
L 105.741818 251.917166 
L 99.654545 251.917166 
z
" clip-path="url(#peb797ebf28)" style="fill: #1f77b4"/>
   </g>
   <g id="patch_9">
    <path d="M 105.741818 252 
L 111.829091 252 
L 111.829091 251.917166 
L 105.741818 251.917166 
z
" clip-path="url(#peb797ebf28)" style="fill: #1f77b4"/>
   </g>
   <g id="patch_10">
    <path d="M 111.829091 252 
L 117.916364 252 
L 117.916364 251.917166 
L 111.829091 251.917166 
z
" clip-path="url(#peb797ebf28)" style="fill: #1f77b4"/>
   </g>
   <g id="patch_11">
    <path d="M 117.916364 252 
L 124.003636 252 
L 124.003636 251.917166 
L 117.916364 251.917166 
z
" clip-path="url(#peb797ebf28)" style="fill: #1f77b4"/>
   </g>
   <g id="patch_12">
    <path d="M 124.003636 252 
L 130.090909 252 
L 130.090909 251.85504 
L 124.003636 251.85504 
z
" clip-path="url(#peb797ebf28)" style="fill: #1f77b4"/>
   </g>
   <g id="patch_13">
    <path d="M 130.090909 252 
L 136.178182 252 
L 136.178182 251.813623 
L 130.090909 251.813623 
z
" clip-path="url(#peb797ebf28)" style="fill: #1f77b4"/>
   </g>
   <g id="patch_14">
    <path d="M 136.178182 252 
L 142.265455 252 
L 142.265455 251.668663 
L 136.178182 251.668663 
z
" clip-path="url(#peb797ebf28)" style="fill: #1f77b4"/>
   </g>
   <g id="patch_15">
    <path d="M 142.265455 252 
L 148.352727 252 
L 148.352727 251.544411 
L 142.265455 251.544411 
z
" clip-path="url(#peb797ebf28)" style="fill: #1f77b4"/>
   </g>
   <g id="patch_16">
    <path d="M 148.352727 252 
L 154.44 252 
L 154.44 251.213074 
L 148.352727 251.213074 
z
" clip-path="url(#peb797ebf28)" style="fill: #1f77b4"/>
   </g>
   <g id="patch_17">
    <path d="M 154.44 252 
L 160.527273 252 
L 160.527273 250.571109 
L 154.44 250.571109 
z
" clip-path="url(#peb797ebf28)" style="fill: #1f77b4"/>
   </g>
   <g id="patch_18">
    <path d="M 160.527273 252 
L 166.614545 252 
L 166.614545 249.867017 
L 160.527273 249.867017 
z
" clip-path="url(#peb797ebf28)" style="fill: #1f77b4"/>
   </g>
   <g id="patch_19">
    <path d="M 166.614545 252 
L 172.701818 252 
L 172.701818 248.355291 
L 166.614545 248.355291 
z
" clip-path="url(#peb797ebf28)" style="fill: #1f77b4"/>
   </g>
   <g id="patch_20">
    <path d="M 172.701818 252 
L 178.789091 252 
L 178.789091 246.2016 
L 172.701818 246.2016 
z
" clip-path="url(#peb797ebf28)" style="fill: #1f77b4"/>
   </g>
   <g id="patch_21">
    <path d="M 178.789091 252 
L 184.876364 252 
L 184.876364 243.509486 
L 178.789091 243.509486 
z
" clip-path="url(#peb797ebf28)" style="fill: #1f77b4"/>
   </g>
   <g id="patch_22">
    <path d="M 184.876364 252 
L 190.963636 252 
L 190.963636 239.471314 
L 184.876364 239.471314 
z
" clip-path="url(#peb797ebf28)" style="fill: #1f77b4"/>
   </g>
   <g id="patch_23">
    <path d="M 190.963636 252 
L 197.050909 252 
L 197.050909 233.797166 
L 190.963636 233.797166 
z
" clip-path="url(#peb797ebf28)" style="fill: #1f77b4"/>
   </g>
   <g id="patch_24">
    <path d="M 197.050909 252 
L 203.138182 252 
L 203.138182 225.348069 
L 197.050909 225.348069 
z
" clip-path="url(#peb797ebf28)" style="fill: #1f77b4"/>
   </g>
   <g id="patch_25">
    <path d="M 203.138182 252 
L 209.225455 252 
L 209.225455 214.268983 
L 203.138182 214.268983 
z
" clip-path="url(#peb797ebf28)" style="fill: #1f77b4"/>
   </g>
   <g id="patch_26">
    <path d="M 209.225455 252 
L 215.312727 252 
L 215.312727 199.503771 
L 209.225455 199.503771 
z
" clip-path="url(#peb797ebf28)" style="fill: #1f77b4"/>
   </g>
   <g id="patch_27">
    <path d="M 215.312727 252 
L 221.4 252 
L 221.4 181.922194 
L 215.312727 181.922194 
z
" clip-path="url(#peb797ebf28)" style="fill: #1f77b4"/>
   </g>
   <g id="patch_28">
    <path d="M 221.4 252 
L 227.487273 252 
L 227.487273 161.275749 
L 221.4 161.275749 
z
" clip-path="url(#peb797ebf28)" style="fill: #1f77b4"/>
   </g>
   <g id="patch_29">
    <path d="M 227.487273 252 
L 233.574545 252 
L 233.574545 139.904503 
L 227.487273 139.904503 
z
" clip-path="url(#peb797ebf28)" style="fill: #1f77b4"/>
   </g>
   <g id="patch_30">
    <path d="M 233.574545 252 
L 239.661818 252 
L 239.661818 118.512549 
L 233.574545 118.512549 
z
" clip-path="url(#peb797ebf28)" style="fill: #1f77b4"/>
   </g>
   <g id="patch_31">
    <path d="M 239.661818 252 
L 245.749091 252 
L 245.749091 100.019794 
L 239.661818 100.019794 
z
" clip-path="url(#peb797ebf28)" style="fill: #1f77b4"/>
   </g>
   <g id="patch_32">
    <path d="M 245.749091 252 
L 251.836364 252 
L 251.836364 85.337417 
L 245.749091 85.337417 
z
" clip-path="url(#peb797ebf28)" style="fill: #1f77b4"/>
   </g>
   <g id="patch_33">
    <path d="M 251.836364 252 
L 257.923636 252 
L 257.923636 73.968411 
L 251.836364 73.968411 
z
" clip-path="url(#peb797ebf28)" style="fill: #1f77b4"/>
   </g>
   <g id="patch_34">
    <path d="M 257.923636 252 
L 264.010909 252 
L 264.010909 65.125851 
L 257.923636 65.125851 
z
" clip-path="url(#peb797ebf28)" style="fill: #1f77b4"/>
   </g>
   <g id="patch_35">
    <path d="M 264.010909 252 
L 270.098182 252 
L 270.098182 58.62336 
L 264.010909 58.62336 
z
" clip-path="url(#peb797ebf28)" style="fill: #1f77b4"/>
   </g>
   <g id="patch_36">
    <path d="M 270.098182 252 
L 276.185455 252 
L 276.185455 54.046766 
L 270.098182 54.046766 
z
" clip-path="url(#peb797ebf28)" style="fill: #1f77b4"/>
   </g>
   <g id="patch_37">
    <path d="M 276.185455 252 
L 282.272727 252 
L 282.272727 51.08544 
L 276.185455 51.08544 
z
" clip-path="url(#peb797ebf28)" style="fill: #1f77b4"/>
   </g>
   <g id="patch_38">
    <path d="M 282.272727 252 
L 288.36 252 
L 288.36 49.180251 
L 282.272727 49.180251 
z
" clip-path="url(#peb797ebf28)" style="fill: #1f77b4"/>
   </g>
   <g id="patch_39">
    <path d="M 288.36 252 
L 294.447273 252 
L 294.447273 47.772069 
L 288.36 47.772069 
z
" clip-path="url(#peb797ebf28)" style="fill: #1f77b4"/>
   </g>
   <g id="patch_40">
    <path d="M 294.447273 252 
L 300.534545 252 
L 300.534545 46.840183 
L 294.447273 46.840183 
z
" clip-path="url(#peb797ebf28)" style="fill: #1f77b4"/>
   </g>
   <g id="patch_41">
    <path d="M 300.534545 252 
L 306.621818 252 
L 306.621818 46.198217 
L 300.534545 46.198217 
z
" clip-path="url(#peb797ebf28)" style="fill: #1f77b4"/>
   </g>
   <g id="patch_42">
    <path d="M 306.621818 252 
L 312.709091 252 
L 312.709091 45.742629 
L 306.621818 45.742629 
z
" clip-path="url(#peb797ebf28)" style="fill: #1f77b4"/>
   </g>
   <g id="patch_43">
    <path d="M 312.709091 252 
L 318.796364 252 
L 318.796364 45.57696 
L 312.709091 45.57696 
z
" clip-path="url(#peb797ebf28)" style="fill: #1f77b4"/>
   </g>
   <g id="patch_44">
    <path d="M 318.796364 252 
L 324.883636 252 
L 324.883636 45.349166 
L 318.796364 45.349166 
z
" clip-path="url(#peb797ebf28)" style="fill: #1f77b4"/>
   </g>
   <g id="patch_45">
    <path d="M 324.883636 252 
L 330.970909 252 
L 330.970909 45.245623 
L 324.883636 45.245623 
z
" clip-path="url(#peb797ebf28)" style="fill: #1f77b4"/>
   </g>
   <g id="patch_46">
    <path d="M 330.970909 252 
L 337.058182 252 
L 337.058182 45.121371 
L 330.970909 45.121371 
z
" clip-path="url(#peb797ebf28)" style="fill: #1f77b4"/>
   </g>
   <g id="patch_47">
    <path d="M 337.058182 252 
L 343.145455 252 
L 343.145455 45.079954 
L 337.058182 45.079954 
z
" clip-path="url(#peb797ebf28)" style="fill: #1f77b4"/>
   </g>
   <g id="patch_48">
    <path d="M 343.145455 252 
L 349.232727 252 
L 349.232727 44.976411 
L 343.145455 44.976411 
z
" clip-path="url(#peb797ebf28)" style="fill: #1f77b4"/>
   </g>
   <g id="patch_49">
    <path d="M 349.232727 252 
L 355.32 252 
L 355.32 44.976411 
L 349.232727 44.976411 
z
" clip-path="url(#peb797ebf28)" style="fill: #1f77b4"/>
   </g>
   <g id="patch_50">
    <path d="M 355.32 252 
L 361.407273 252 
L 361.407273 44.955703 
L 355.32 44.955703 
z
" clip-path="url(#peb797ebf28)" style="fill: #1f77b4"/>
   </g>
   <g id="patch_51">
    <path d="M 361.407273 252 
L 367.494545 252 
L 367.494545 44.955703 
L 361.407273 44.955703 
z
" clip-path="url(#peb797ebf28)" style="fill: #1f77b4"/>
   </g>
   <g id="patch_52">
    <path d="M 367.494545 252 
L 373.581818 252 
L 373.581818 44.914286 
L 367.494545 44.914286 
z
" clip-path="url(#peb797ebf28)" style="fill: #1f77b4"/>
   </g>
   <g id="matplotlib.axis_1">
    <g id="xtick_1">
     <g id="line2d_1">
      <defs>
       <path id="m4ad96be88b" d="M 0 0 
L 0 3.5 
" style="stroke: #000000; stroke-width: 0.8"/>
      </defs>
      <g>
       <use xlink:href="#m4ad96be88b" x="99.791686" y="252" style="stroke: #000000; stroke-width: 0.8"/>
      </g>
     </g>
     <g id="text_1">
      <!-- −200 -->
      <g transform="translate(86.058092 266.598437)scale(0.1 -0.1)">
       <defs>
        <path id="DejaVuSans-2212" d="M 678 2272 
L 4684 2272 
L 4684 1741 
L 678 1741 
L 678 2272 
z
" transform="scale(0.015625)"/>
        <path id="DejaVuSans-32" d="M 1228 531 
L 3431 531 
L 3431 0 
L 469 0 
L 469 531 
Q 828 903 1448 1529 
Q 2069 2156 2228 2338 
Q 2531 2678 2651 2914 
Q 2772 3150 2772 3378 
Q 2772 3750 2511 3984 
Q 2250 4219 1831 4219 
Q 1534 4219 1204 4116 
Q 875 4013 500 3803 
L 500 4441 
Q 881 4594 1212 4672 
Q 1544 4750 1819 4750 
Q 2544 4750 2975 4387 
Q 3406 4025 3406 3419 
Q 3406 3131 3298 2873 
Q 3191 2616 2906 2266 
Q 2828 2175 2409 1742 
Q 1991 1309 1228 531 
z
" transform="scale(0.015625)"/>
        <path id="DejaVuSans-30" d="M 2034 4250 
Q 1547 4250 1301 3770 
Q 1056 3291 1056 2328 
Q 1056 1369 1301 889 
Q 1547 409 2034 409 
Q 2525 409 2770 889 
Q 3016 1369 3016 2328 
Q 3016 3291 2770 3770 
Q 2525 4250 2034 4250 
z
M 2034 4750 
Q 2819 4750 3233 4129 
Q 3647 3509 3647 2328 
Q 3647 1150 3233 529 
Q 2819 -91 2034 -91 
Q 1250 -91 836 529 
Q 422 1150 422 2328 
Q 422 3509 836 4129 
Q 1250 4750 2034 4750 
z
" transform="scale(0.015625)"/>
       </defs>
       <use xlink:href="#DejaVuSans-2212"/>
       <use xlink:href="#DejaVuSans-32" x="83.789062"/>
       <use xlink:href="#DejaVuSans-30" x="147.412109"/>
       <use xlink:href="#DejaVuSans-30" x="211.035156"/>
      </g>
     </g>
    </g>
    <g id="xtick_2">
     <g id="line2d_2">
      <g>
       <use xlink:href="#m4ad96be88b" x="158.126866" y="252" style="stroke: #000000; stroke-width: 0.8"/>
      </g>
     </g>
     <g id="text_2">
      <!-- −100 -->
      <g transform="translate(144.393272 266.598437)scale(0.1 -0.1)">
       <defs>
        <path id="DejaVuSans-31" d="M 794 531 
L 1825 531 
L 1825 4091 
L 703 3866 
L 703 4441 
L 1819 4666 
L 2450 4666 
L 2450 531 
L 3481 531 
L 3481 0 
L 794 0 
L 794 531 
z
" transform="scale(0.015625)"/>
       </defs>
       <use xlink:href="#DejaVuSans-2212"/>
       <use xlink:href="#DejaVuSans-31" x="83.789062"/>
       <use xlink:href="#DejaVuSans-30" x="147.412109"/>
       <use xlink:href="#DejaVuSans-30" x="211.035156"/>
      </g>
     </g>
    </g>
    <g id="xtick_3">
     <g id="line2d_3">
      <g>
       <use xlink:href="#m4ad96be88b" x="216.462046" y="252" style="stroke: #000000; stroke-width: 0.8"/>
      </g>
     </g>
     <g id="text_3">
      <!-- 0 -->
      <g transform="translate(213.280796 266.598437)scale(0.1 -0.1)">
       <use xlink:href="#DejaVuSans-30"/>
      </g>
     </g>
    </g>
    <g id="xtick_4">
     <g id="line2d_4">
      <g>
       <use xlink:href="#m4ad96be88b" x="274.797226" y="252" style="stroke: #000000; stroke-width: 0.8"/>
      </g>
     </g>
     <g id="text_4">
      <!-- 100 -->
      <g transform="translate(265.253476 266.598437)scale(0.1 -0.1)">
       <use xlink:href="#DejaVuSans-31"/>
       <use xlink:href="#DejaVuSans-30" x="63.623047"/>
       <use xlink:href="#DejaVuSans-30" x="127.246094"/>
      </g>
     </g>
    </g>
    <g id="xtick_5">
     <g id="line2d_5">
      <g>
       <use xlink:href="#m4ad96be88b" x="333.132406" y="252" style="stroke: #000000; stroke-width: 0.8"/>
      </g>
     </g>
     <g id="text_5">
      <!-- 200 -->
      <g transform="translate(323.588656 266.598437)scale(0.1 -0.1)">
       <use xlink:href="#DejaVuSans-32"/>
       <use xlink:href="#DejaVuSans-30" x="63.623047"/>
       <use xlink:href="#DejaVuSans-30" x="127.246094"/>
      </g>
     </g>
    </g>
   </g>
   <g id="matplotlib.axis_2">
    <g id="ytick_1">
     <g id="line2d_6">
      <defs>
       <path id="m362fbfae81" d="M 0 0 
L -3.5 0 
" style="stroke: #000000; stroke-width: 0.8"/>
      </defs>
      <g>
       <use xlink:href="#m362fbfae81" x="54" y="252" style="stroke: #000000; stroke-width: 0.8"/>
      </g>
     </g>
     <g id="text_6">
      <!-- 0.0 -->
      <g transform="translate(31.096875 255.799219)scale(0.1 -0.1)">
       <defs>
        <path id="DejaVuSans-2e" d="M 684 794 
L 1344 794 
L 1344 0 
L 684 0 
L 684 794 
z
" transform="scale(0.015625)"/>
       </defs>
       <use xlink:href="#DejaVuSans-30"/>
       <use xlink:href="#DejaVuSans-2e" x="63.623047"/>
       <use xlink:href="#DejaVuSans-30" x="95.410156"/>
      </g>
     </g>
    </g>
    <g id="ytick_2">
     <g id="line2d_7">
      <g>
       <use xlink:href="#m362fbfae81" x="54" y="210.582857" style="stroke: #000000; stroke-width: 0.8"/>
      </g>
     </g>
     <g id="text_7">
      <!-- 0.2 -->
      <g transform="translate(31.096875 214.382076)scale(0.1 -0.1)">
       <use xlink:href="#DejaVuSans-30"/>
       <use xlink:href="#DejaVuSans-2e" x="63.623047"/>
       <use xlink:href="#DejaVuSans-32" x="95.410156"/>
      </g>
     </g>
    </g>
    <g id="ytick_3">
     <g id="line2d_8">
      <g>
       <use xlink:href="#m362fbfae81" x="54" y="169.165714" style="stroke: #000000; stroke-width: 0.8"/>
      </g>
     </g>
     <g id="text_8">
      <!-- 0.4 -->
      <g transform="translate(31.096875 172.964933)scale(0.1 -0.1)">
       <defs>
        <path id="DejaVuSans-34" d="M 2419 4116 
L 825 1625 
L 2419 1625 
L 2419 4116 
z
M 2253 4666 
L 3047 4666 
L 3047 1625 
L 3713 1625 
L 3713 1100 
L 3047 1100 
L 3047 0 
L 2419 0 
L 2419 1100 
L 313 1100 
L 313 1709 
L 2253 4666 
z
" transform="scale(0.015625)"/>
       </defs>
       <use xlink:href="#DejaVuSans-30"/>
       <use xlink:href="#DejaVuSans-2e" x="63.623047"/>
       <use xlink:href="#DejaVuSans-34" x="95.410156"/>
      </g>
     </g>
    </g>
    <g id="ytick_4">
     <g id="line2d_9">
      <g>
       <use xlink:href="#m362fbfae81" x="54" y="127.748571" style="stroke: #000000; stroke-width: 0.8"/>
      </g>
     </g>
     <g id="text_9">
      <!-- 0.6 -->
      <g transform="translate(31.096875 131.54779)scale(0.1 -0.1)">
       <defs>
        <path id="DejaVuSans-36" d="M 2113 2584 
Q 1688 2584 1439 2293 
Q 1191 2003 1191 1497 
Q 1191 994 1439 701 
Q 1688 409 2113 409 
Q 2538 409 2786 701 
Q 3034 994 3034 1497 
Q 3034 2003 2786 2293 
Q 2538 2584 2113 2584 
z
M 3366 4563 
L 3366 3988 
Q 3128 4100 2886 4159 
Q 2644 4219 2406 4219 
Q 1781 4219 1451 3797 
Q 1122 3375 1075 2522 
Q 1259 2794 1537 2939 
Q 1816 3084 2150 3084 
Q 2853 3084 3261 2657 
Q 3669 2231 3669 1497 
Q 3669 778 3244 343 
Q 2819 -91 2113 -91 
Q 1303 -91 875 529 
Q 447 1150 447 2328 
Q 447 3434 972 4092 
Q 1497 4750 2381 4750 
Q 2619 4750 2861 4703 
Q 3103 4656 3366 4563 
z
" transform="scale(0.015625)"/>
       </defs>
       <use xlink:href="#DejaVuSans-30"/>
       <use xlink:href="#DejaVuSans-2e" x="63.623047"/>
       <use xlink:href="#DejaVuSans-36" x="95.410156"/>
      </g>
     </g>
    </g>
    <g id="ytick_5">
     <g id="line2d_10">
      <g>
       <use xlink:href="#m362fbfae81" x="54" y="86.331429" style="stroke: #000000; stroke-width: 0.8"/>
      </g>
     </g>
     <g id="text_10">
      <!-- 0.8 -->
      <g transform="translate(31.096875 90.130647)scale(0.1 -0.1)">
       <defs>
        <path id="DejaVuSans-38" d="M 2034 2216 
Q 1584 2216 1326 1975 
Q 1069 1734 1069 1313 
Q 1069 891 1326 650 
Q 1584 409 2034 409 
Q 2484 409 2743 651 
Q 3003 894 3003 1313 
Q 3003 1734 2745 1975 
Q 2488 2216 2034 2216 
z
M 1403 2484 
Q 997 2584 770 2862 
Q 544 3141 544 3541 
Q 544 4100 942 4425 
Q 1341 4750 2034 4750 
Q 2731 4750 3128 4425 
Q 3525 4100 3525 3541 
Q 3525 3141 3298 2862 
Q 3072 2584 2669 2484 
Q 3125 2378 3379 2068 
Q 3634 1759 3634 1313 
Q 3634 634 3220 271 
Q 2806 -91 2034 -91 
Q 1263 -91 848 271 
Q 434 634 434 1313 
Q 434 1759 690 2068 
Q 947 2378 1403 2484 
z
M 1172 3481 
Q 1172 3119 1398 2916 
Q 1625 2713 2034 2713 
Q 2441 2713 2670 2916 
Q 2900 3119 2900 3481 
Q 2900 3844 2670 4047 
Q 2441 4250 2034 4250 
Q 1625 4250 1398 4047 
Q 1172 3844 1172 3481 
z
" transform="scale(0.015625)"/>
       </defs>
       <use xlink:href="#DejaVuSans-30"/>
       <use xlink:href="#DejaVuSans-2e" x="63.623047"/>
       <use xlink:href="#DejaVuSans-38" x="95.410156"/>
      </g>
     </g>
    </g>
    <g id="ytick_6">
     <g id="line2d_11">
      <g>
       <use xlink:href="#m362fbfae81" x="54" y="44.914286" style="stroke: #000000; stroke-width: 0.8"/>
      </g>
     </g>
     <g id="text_11">
      <!-- 1.0 -->
      <g transform="translate(31.096875 48.713504)scale(0.1 -0.1)">
       <use xlink:href="#DejaVuSans-31"/>
       <use xlink:href="#DejaVuSans-2e" x="63.623047"/>
       <use xlink:href="#DejaVuSans-30" x="95.410156"/>
      </g>
     </g>
    </g>
   </g>
   <g id="patch_53">
    <path d="M 54 252 
L 54 34.56 
" style="fill: none; stroke: #000000; stroke-width: 0.8; stroke-linejoin: miter; stroke-linecap: square"/>
   </g>
   <g id="patch_54">
    <path d="M 388.8 252 
L 388.8 34.56 
" style="fill: none; stroke: #000000; stroke-width: 0.8; stroke-linejoin: miter; stroke-linecap: square"/>
   </g>
   <g id="patch_55">
    <path d="M 54 252 
L 388.8 252 
" style="fill: none; stroke: #000000; stroke-width: 0.8; stroke-linejoin: miter; stroke-linecap: square"/>
   </g>
   <g id="patch_56">
    <path d="M 54 34.56 
L 388.8 34.56 
" style="fill: none; stroke: #000000; stroke-width: 0.8; stroke-linejoin: miter; stroke-linecap: square"/>
   </g>
  </g>
 </g>
 <defs>
  <clipPath id="peb797ebf28">
   <rect x="54" y="34.56" width="334.8" height="217.44"/>
  </clipPath>
 </defs>
</svg>
